<svg version="1.2" xmlns="http://www.w3.org/2000/svg" viewBox="0 0 62 62" width="62" height="62"><defs><clipPath clipPathUnits="userSpaceOnUse" id="cp1"><path d="m-87-2129h960v2389h-960z"/></clipPath></defs><style></style><g clip-path="url(#cp1)"><path  d="m9.5 9.2h1.4v20.8h9v-20.8l1.3 1.4v19.4h9.2v-23.2l-6.8-6.8h-23.1v30h9zm43 1.5v10.1h-10.5l-1.4-1.4h10.5v-8.7h-12.7l-6.6 6.4v6.3l6.6 6.7h23.2v-23.3l-6.8-6.8h-23.1v9.2h19.4zm-29 40.4l6.9-6.8v-12.8h-29.9v9.1h20.6l-1.3 1.4h-12.8l-6.5 6.6v13h29.9v-9.1h-20.9l1.4-1.4zm8.1-13v16.9l6.7 6.6h23.2v-9.1h-21v-10.4l1.4-1.4h10.6l-1.5 1.4h-9.1v9h12.8l6.8-6.8v-12.7h-23.2z"/></g></svg>